<svg version="1.1" id="Layer_1" xmlns="http://www.w3.org/2000/svg" xmlns:xlink="http://www.w3.org/1999/xlink" x="0px"
	y="0px" width="100%" viewBox="0 0 1024 1024" enable-background="new 0 0 1024 1024" xml:space="preserve">
	<path fill="#0DABB9" opacity="1.000000" stroke="none" d="
M708.944031,406.989746 
	C706.660889,419.476562 705.110718,432.154022 701.924805,444.406128 
	C696.995789,463.361755 689.501343,481.376099 678.535889,497.794586 
	C654.437683,533.876831 622.179565,559.521912 581.174927,573.948242 
	C556.098206,582.770874 530.089050,585.807861 503.780365,583.785339 
	C468.836273,581.098938 436.429596,570.109863 407.535889,549.896423 
	C373.750671,526.260925 349.841187,494.876526 335.713074,456.188904 
	C328.059967,435.232086 323.955536,413.425720 324.157806,391.125336 
	C324.583496,344.190674 340.135986,302.678711 370.654999,266.931519 
	C388.996918,245.447418 410.680237,228.218033 436.633972,216.758438 
	C454.223175,208.992142 472.307831,202.657288 491.638733,200.945801 
	C501.844635,200.042221 512.104248,198.953262 522.321716,199.110687 
	C564.692749,199.763489 602.713989,212.941864 636.486084,238.850479 
	C674.228699,267.805145 695.456543,306.634399 705.952026,352.126282 
	C707.393188,358.372711 707.987488,364.814484 708.660950,371.897400 
	C708.231995,382.691132 708.077942,392.753143 708.043945,402.815582 
	C708.039246,404.205963 708.629333,405.598328 708.944031,406.989746 
M521.090088,487.957123 
	C521.090088,487.957123 521.055481,487.723022 521.520630,488.444305 
	C534.049194,488.942688 546.577820,489.441071 559.017151,489.964783 
	C559.017151,489.964783 559.003845,489.873016 559.532104,490.519012 
	C564.292908,490.819641 569.051819,491.166504 573.816772,491.369720 
	C574.510681,491.399323 575.233948,490.742584 576.723511,490.203125 
	C577.225769,490.339539 577.727966,490.475952 578.473572,490.743835 
	C578.639893,490.826813 578.805542,490.911072 579.893494,490.957001 
	C588.368164,491.727112 596.842773,492.497223 605.490540,493.283081 
	C605.850342,492.570435 606.360107,491.720581 606.725891,490.812714 
	C616.154358,467.409454 621.973633,443.132935 624.345032,418.018463 
	C624.819885,412.989502 625.418884,407.972229 626.529114,403.187164 
	C626.681335,392.621399 626.837158,382.055664 626.942017,371.489441 
	C626.943237,371.368073 626.284851,371.240143 625.346436,370.501038 
	C623.888916,359.389954 623.325928,348.066833 620.754456,337.219818 
	C617.299133,322.644958 612.318237,308.430054 607.928101,294.080231 
	C607.177734,291.627747 606.288025,290.261414 602.716614,290.782867 
	C592.444580,292.282776 582.054199,293.130005 571.681335,293.745880 
	C555.458801,294.708984 539.214966,295.342346 522.973328,295.926178 
	C520.573059,296.012451 519.666321,296.751495 519.255127,298.582062 
	C518.894592,298.417297 518.534119,298.252502 518.173584,298.087738 
	C518.115540,298.397980 518.006897,298.708191 518.006775,299.018463 
	C518.001221,310.467346 517.870178,321.918671 518.075134,333.363922 
	C518.158020,337.989777 516.323425,338.793701 512.003906,337.296997 
	C512.003906,335.425629 512.004150,333.634064 512.003906,331.842499 
	C512.002319,321.057312 512.031616,310.271881 511.953247,299.487244 
	C511.944977,298.351257 511.302307,297.219849 510.045990,295.968201 
	C505.753204,295.664948 501.459991,295.367188 497.167664,295.057587 
	C474.239014,293.403809 451.306915,291.794434 428.386841,290.029236 
	C425.627319,289.816711 424.099609,290.429962 423.285645,293.171539 
	C420.935120,301.088348 418.039032,308.863434 416.077087,316.870544 
	C413.141846,328.849731 410.820831,340.979462 407.548309,353.500549 
	C407.034271,357.906799 406.264893,362.302887 406.088898,366.722595 
	C405.953735,370.116669 406.566315,373.540558 406.993561,377.762177 
	C406.945099,378.856720 406.896667,379.951263 406.291565,381.555359 
	C405.861786,383.457062 405.110260,385.349884 405.057343,387.262024 
	C404.815430,396.000305 404.885834,396.007416 396.363403,396.008484 
	C377.111023,396.010895 357.858429,395.966766 338.606781,396.085907 
	C337.097260,396.095245 334.354584,397.141052 334.304626,397.853851 
	C334.093292,400.867157 334.684296,403.936737 335.162842,407.320404 
	C335.162842,407.320404 335.100952,407.695740 335.072845,408.328186 
	C335.330322,408.870392 335.587799,409.412598 335.970978,410.488861 
	C335.936218,410.668396 335.901489,410.847961 335.343018,411.624237 
	C336.078827,417.455353 336.692200,423.306183 337.626190,429.105377 
	C337.901031,430.811951 339.083832,432.372253 340.081757,434.729218 
	C346.025604,459.946991 357.200592,482.648560 373.163544,502.992523 
	C374.117371,504.208099 376.484436,505.374756 377.835907,505.054321 
	C391.223022,501.880157 404.534546,498.387177 418.092987,494.926880 
	C408.946747,471.810669 402.676025,447.820435 399.545380,422.519043 
	C402.529572,422.180328 405.075317,421.891357 407.705383,421.592804 
	C408.202820,424.252380 408.694275,426.502655 409.037659,428.775269 
	C412.213531,449.792297 417.378174,470.283569 425.020111,490.141907 
	C426.111023,492.976776 427.159180,493.917114 430.710052,493.427307 
	C444.111908,491.578674 457.587616,490.079895 471.083954,489.155640 
	C483.823944,488.283142 496.625000,488.307251 509.398041,487.900513 
	C510.256531,487.873199 511.105255,487.538300 511.958527,487.346466 
	C510.998932,486.184021 510.033478,485.803192 509.040100,485.704712 
	C495.314484,484.343903 482.415955,480.458282 470.857056,472.800598 
	C453.871368,461.547760 441.683105,446.436157 434.765930,427.175201 
	C433.273621,423.019867 433.777039,419.236206 437.041565,416.239136 
	C440.019501,413.505188 443.814758,412.942841 447.166260,415.090424 
	C449.393890,416.517822 451.047241,419.018616 452.606140,421.281158 
	C458.693665,430.116333 463.438385,440.244019 470.869171,447.716553 
	C492.066376,469.032745 527.770325,470.801758 552.240112,453.230286 
	C563.832336,444.906097 570.978455,433.273468 577.413635,421.009033 
	C580.691650,414.761597 585.258606,412.596924 590.553101,414.822754 
	C595.687561,416.981323 597.194763,422.035278 594.684265,428.774139 
	C590.706421,439.451782 584.828064,449.012268 577.426514,457.628326 
	C562.860962,474.583923 544.610229,484.166321 521.391663,485.131775 
	C521.367371,486.053253 521.343079,486.974731 521.090088,487.957123 
M512.466187,502.877472 
	C512.362244,500.754517 512.258240,498.631561 512.157654,496.577667 
	C499.714600,494.686218 437.341766,499.990021 431.020020,503.492432 
	C441.265015,525.493774 455.251801,544.488770 475.049805,558.908691 
	C484.302246,565.647644 494.570770,570.037659 505.852722,571.755066 
	C508.077148,572.093628 511.625641,573.975952 512.958313,570.342896 
	C513.100586,570.901062 513.242920,571.459290 513.655151,573.076477 
	C513.655151,547.044495 513.655151,522.175659 513.655151,497.306854 
	C513.516724,497.306366 513.378296,497.305878 513.239868,497.305389 
	C513.086609,499.433533 512.933350,501.561676 512.466187,502.877472 
M520.582886,496.867279 
	C520.387451,497.266052 520.021301,497.664612 520.020874,498.063568 
	C519.996216,521.543823 519.982666,545.024170 520.061707,568.504211 
	C520.065552,569.648376 520.905457,570.789856 522.175049,571.934937 
	C532.948730,571.340210 543.208862,568.405396 552.315918,562.893066 
	C575.880615,548.630005 590.411499,526.798401 602.132385,501.739990 
	C589.809937,500.472900 578.182129,499.085388 566.518799,498.133728 
	C555.618164,497.244324 544.685547,496.661224 533.755249,496.265991 
	C529.559082,496.114288 525.330688,496.855042 520.582886,496.867279 
M511.672729,285.342499 
	C511.774048,261.051697 511.888519,236.760895 511.918610,212.470001 
	C511.919617,211.668320 511.063232,210.865585 509.924316,210.326157 
	C504.005493,211.828064 497.949219,212.929871 492.193756,214.907318 
	C475.301819,220.711029 462.588928,232.387192 451.298035,245.619705 
	C442.289337,256.177521 434.567291,267.688232 429.185608,280.708191 
	C430.421478,281.137939 431.338074,281.670319 432.295258,281.757660 
	C447.762634,283.168976 463.230499,284.579468 478.708710,285.864166 
	C484.969482,286.383820 491.253174,286.820648 497.530518,286.882172 
	C502.057709,286.926544 506.591583,286.288177 511.672729,285.342499 
M520.582886,287.573303 
	C529.372070,287.432312 538.161194,287.291321 547.790466,286.996124 
	C549.372620,286.659546 550.941162,286.128632 552.539001,286.017212 
	C564.928467,285.153137 577.328735,284.440399 589.713989,283.522247 
	C593.832886,283.216888 597.917419,282.448822 602.468872,281.831085 
	C591.660034,259.266754 578.416809,239.887070 558.990173,225.329941 
	C548.959900,217.813843 538.110535,211.885605 525.403870,210.418015 
	C523.588928,210.208374 521.608582,211.430817 519.104797,211.774704 
	C518.741089,213.151062 518.064758,214.526398 518.060364,215.903900 
	C517.992004,237.135681 518.011353,258.367737 518.009155,279.599731 
	C518.008972,281.258453 518.000732,282.917175 517.996277,284.575867 
	C518.570801,284.387726 519.145264,284.199585 519.882812,284.736877 
	C519.928101,285.477203 519.973450,286.217499 520.582886,287.573303 
M336.512817,389.441956 
	C356.647858,389.441956 376.782898,389.441956 397.834747,389.441956 
	C395.541687,389.163239 394.110016,388.989197 393.445374,388.489777 
	C394.879761,388.352325 396.314178,388.214905 397.760559,388.076324 
	C398.838867,353.856873 403.971710,320.720764 416.064606,288.844421 
	C403.397888,285.825867 391.020538,283.065857 378.768707,279.830658 
	C375.475952,278.961182 373.853241,279.407379 371.797363,282.166077 
	C350.732208,310.432770 338.121582,341.937744 335.131866,377.129242 
	C334.808105,380.940460 335.720490,384.856689 336.512817,389.441956 
M698.986389,386.964203 
	C698.342407,379.077240 698.013306,371.149536 696.997925,363.310669 
	C693.323242,334.941528 682.673340,309.236877 666.955322,285.462769 
	C663.942810,280.906219 661.558044,278.838043 655.214111,280.766846 
	C642.238708,284.711945 628.753418,286.979950 615.314392,289.975098 
	C623.493469,307.002869 628.071655,325.454865 630.742981,344.248474 
	C632.778870,358.571655 633.024658,373.149261 634.485840,388.364563 
	C635.429138,388.574829 636.372070,388.966675 637.315796,388.968506 
	C656.677917,389.005829 676.040222,389.018402 695.402161,388.952332 
	C696.595520,388.948242 697.786438,388.253754 698.986389,386.964203 
M623.914429,467.249298 
	C620.809509,476.416016 617.704651,485.582764 614.742310,494.328583 
	C629.598511,498.296692 644.499329,502.276764 659.674500,506.330078 
	C684.260132,474.436676 697.308289,438.001709 699.249451,397.295715 
	C677.195190,397.295715 655.805969,397.295715 634.232422,397.295715 
	C633.748657,420.949829 630.102905,443.880707 623.914429,467.249298 
M646.108154,274.771637 
	C649.291870,273.742065 652.475525,272.712494 655.837036,271.625458 
	C625.000732,236.084885 587.613708,218.643875 557.859497,213.295578 
	C583.017090,230.558182 599.258179,254.341644 611.706421,281.211639 
	C623.231750,279.063385 634.268311,277.006256 646.108154,274.771637 
M652.759583,514.302429 
	C639.248230,508.241150 624.957397,505.388367 610.764404,503.529724 
	C598.805176,529.528198 583.796692,552.372437 560.380310,568.881042 
	C596.614990,560.238892 627.273254,542.271606 652.759583,514.302429 
M436.813446,555.780640 
	C447.881561,560.133850 458.949677,564.487061 470.017761,568.840271 
	C470.344482,568.272034 470.671173,567.703796 470.997894,567.135620 
	C448.813934,550.523438 432.706055,529.183289 421.610107,503.791107 
	C414.745850,505.086487 408.217560,506.107025 401.795807,507.589142 
	C395.211517,509.108734 388.731476,511.079895 382.017548,512.904602 
	C393.587585,527.501587 412.780182,542.507141 436.813446,555.780640 
M459.990997,224.465363 
	C463.358398,221.802963 466.725800,219.140564 470.093201,216.478165 
	C434.491180,225.294067 404.935028,243.677017 380.189240,271.760315 
	C392.950287,274.598450 404.695282,277.190979 416.428772,279.834564 
	C419.230804,280.465881 420.686218,279.241791 421.792419,276.767151 
	C430.697144,256.846863 443.178375,239.511490 459.990997,224.465363 
z" />
	<path fill="#0DABB9" opacity="1.000000" stroke="none" d="
M424.482544,143.137054 
	C434.641632,143.039551 440.541656,147.388779 441.881683,155.594070 
	C442.994476,162.408035 437.834625,170.440445 430.921021,172.441940 
	C429.362610,172.893082 427.462708,173.418213 426.060303,172.930588 
	C420.877289,171.128372 418.335236,174.135452 415.397156,177.597122 
	C404.969208,189.883469 394.302856,201.967987 383.680786,214.088654 
	C381.606384,216.455719 380.525299,218.562531 381.619446,222.083252 
	C383.462433,228.013535 379.164764,235.968918 373.458313,238.728073 
	C367.089935,241.807281 359.863068,240.497223 355.566528,235.074707 
	C353.698334,232.716949 352.071808,232.281891 349.042938,232.764923 
	C333.895630,235.180695 318.678131,237.156143 303.531219,239.279968 
	C299.781219,249.391342 296.693542,251.392838 286.224854,251.242493 
	C284.557800,251.218552 282.360504,252.147217 281.271973,253.391205 
	C270.678955,265.497345 260.327667,277.814819 249.761292,289.944702 
	C247.554062,292.478546 247.284698,294.742126 248.221527,297.920593 
	C250.546997,305.810364 247.119064,313.187927 240.274933,316.065491 
	C233.104355,319.080292 224.083572,316.261566 220.402405,309.397095 
	C217.620743,304.209930 218.084686,298.783844 221.487076,293.950623 
	C225.389145,288.407562 231.135223,286.370209 237.585815,287.473785 
	C240.343445,287.945587 241.682663,287.434509 243.362717,285.438202 
	C253.618393,273.251892 263.921448,261.102081 274.436432,249.140259 
	C276.545410,246.741089 276.713959,245.183090 275.297272,242.339371 
	C272.330078,236.383179 273.863434,229.100647 278.295837,224.912079 
	C282.637451,220.809311 290.664948,219.458710 295.896271,222.502777 
	C298.208466,223.848221 300.526031,226.011307 301.640564,228.370392 
	C302.919952,231.078369 304.625671,231.140366 306.796844,230.827652 
	C320.189789,228.898804 333.573608,226.906845 346.962799,224.951843 
	C349.971832,224.512466 352.287323,224.017136 353.258209,220.111252 
	C354.883087,213.574478 362.738434,209.302216 369.873230,210.695602 
	C373.997772,211.501144 376.617188,210.345688 379.261536,207.183456 
	C390.125336,194.192230 401.258148,181.426163 412.175690,168.479218 
	C412.989441,167.514206 413.471802,165.599442 413.117706,164.424728 
	C409.926880,153.838272 413.315430,147.123642 424.482544,143.137054 
z" />
	<path fill="#0FADBB" opacity="1.000000" stroke="none" d="
M206.841232,781.026794 
	C206.841232,781.026794 206.390778,780.992676 206.093033,780.771973 
	C205.468643,780.354065 205.218338,780.445374 205.044373,780.825195 
	C196.882370,780.893555 188.720490,780.987976 180.558350,781.022827 
	C172.579742,781.056946 164.600906,781.030273 156.072540,781.030273 
	C156.072540,796.019104 156.072540,810.737427 156.072540,825.716553 
	C150.293045,825.716553 145.064301,825.716553 139.569962,825.716553 
	C139.569962,791.069092 139.569962,756.643250 139.569962,721.892212 
	C144.918030,721.892212 150.173416,721.892212 155.808975,721.892212 
	C155.808975,736.452148 155.808975,750.885193 155.808975,765.984497 
	C172.773819,765.984497 189.369446,765.984497 206.752396,765.712158 
	C207.695587,753.989441 207.845871,742.538879 208.009125,731.088501 
	C208.140274,721.889771 206.710373,723.342529 216.327209,722.892639 
	C221.034851,722.672424 222.126648,724.259399 222.095749,728.768677 
	C221.899673,757.381470 222.063705,785.996582 221.960571,814.610352 
	C221.921555,825.433655 223.952271,823.728699 212.471436,824.072571 
	C208.957260,824.177795 207.876663,823.016479 207.935562,819.527893 
	C208.123642,808.384827 208.053925,797.236206 207.953232,786.090881 
	C207.937958,784.399658 207.229218,782.714661 206.841232,781.026794 
z" />
	<path fill="#0FACBA" opacity="1.000000" stroke="none" d="
M419.034485,834.003113 
	C419.034637,841.474365 419.034637,848.446289 419.034637,855.728760 
	C413.698639,855.728760 408.657928,855.728760 403.437408,855.728760 
	C403.437408,821.474365 403.437408,787.417053 403.437408,753.118713 
	C408.296936,753.118713 412.883636,753.118713 417.933136,753.118713 
	C417.933136,756.210266 417.933136,759.262817 417.933136,761.293213 
	C423.657959,758.156189 429.087494,753.755798 435.260590,752.056152 
	C456.767883,746.134888 476.521057,760.855896 477.592804,783.123474 
	C477.877991,789.048950 477.694092,795.157593 476.567719,800.957336 
	C474.140472,813.454773 466.849121,822.484680 454.356659,825.870300 
	C441.578735,829.333374 429.663086,827.157349 419.034302,816.735901 
	C419.034302,822.794373 419.034302,828.149109 419.034485,834.003113 
M422.191742,778.975464 
	C420.178314,784.507690 419.335114,790.095398 421.069000,795.899475 
	C423.429199,803.799805 427.812531,809.877747 436.152649,812.008972 
	C444.010895,814.016907 450.771454,811.520874 455.537537,805.172546 
	C460.375549,798.728394 461.884888,791.191040 460.407318,783.148499 
	C459.255005,776.876282 456.525757,771.495422 451.088074,768.000854 
	C440.704773,761.327698 428.446808,765.829956 422.191742,778.975464 
z" />
	<path fill="#0DABB9" opacity="1.000000" stroke="none" d="
M541.140991,824.970459 
	C526.785767,818.757385 519.020020,809.073242 519.207031,797.736145 
	C523.769531,796.134216 528.418274,794.501892 533.045166,792.877319 
	C534.580139,796.522949 535.603882,800.219727 537.550049,803.341492 
	C543.655396,813.135010 561.427551,816.643127 571.005249,810.138916 
	C576.654602,806.302551 579.095215,800.699097 577.821106,794.156982 
	C576.759460,788.705383 571.979919,786.566956 567.085388,784.983459 
	C557.520142,781.888794 547.613159,779.517944 538.522278,775.369263 
	C525.906494,769.611877 521.770691,761.264282 522.949585,748.251953 
	C523.930969,737.419983 532.855042,726.351501 543.516846,723.017822 
	C558.241638,718.413818 571.902344,721.029175 583.684753,730.681274 
	C587.823853,734.072021 590.244629,739.560303 593.846375,744.651123 
	C588.134399,747.164856 583.346252,749.272095 578.121643,751.571411 
	C575.619568,743.619751 570.720276,738.211182 562.463501,736.459717 
	C555.821472,735.050842 549.520630,735.541199 544.203857,740.272034 
	C536.917664,746.755432 538.067322,757.957458 547.060059,761.546631 
	C556.047119,765.133423 565.688293,767.046143 574.930176,770.040100 
	C583.233276,772.729980 590.228577,777.158752 593.332275,786.030823 
	C599.570496,803.862854 587.493958,823.984009 568.911316,827.118530 
	C559.528381,828.701233 550.461731,828.300903 541.140991,824.970459 
z" />
	<path fill="#0DACBA" opacity="1.000000" stroke="none" d="
M321.043488,855.852051 
	C320.871002,855.894043 320.698486,855.936035 320.263428,855.470337 
	C320.001129,820.685974 320.001373,786.409363 320.001587,752.132812 
	C324.136261,752.132812 328.270966,752.132812 332.864960,752.132812 
	C332.864960,755.772888 332.864960,759.327637 332.864960,764.142212 
	C338.717743,756.190430 345.418549,751.742310 354.143280,750.966064 
	C362.605316,750.213135 370.688354,751.455994 377.940948,756.227600 
	C387.739960,762.674500 392.187164,772.345703 392.808167,783.530823 
	C393.178406,790.199646 392.557129,797.189270 390.904236,803.657166 
	C384.711395,827.890259 354.060425,834.488098 336.934784,818.890991 
	C336.208405,818.229492 335.447754,817.605530 334.052734,817.274292 
	C333.267639,828.499756 332.971436,839.416626 333.086639,850.329224 
	C333.126465,854.099548 331.935699,855.327515 328.252899,855.085571 
	C325.876831,854.929504 323.448425,855.569031 321.043488,855.852051 
M372.038116,803.427551 
	C377.062805,795.168091 377.224091,786.442444 373.914429,777.684570 
	C370.382233,768.337952 361.222748,763.395203 352.622284,765.683777 
	C338.069153,769.556396 331.011536,785.439514 337.509918,799.742981 
	C345.075867,816.396301 364.715332,815.528992 372.038116,803.427551 
z" />
	<path fill="#0DACBA" opacity="1.000000" stroke="none" d="
M777.895630,758.725586 
	C787.241150,749.326233 798.586853,749.192566 810.152710,752.576965 
	C823.306152,756.425964 832.285889,768.106628 832.890808,782.066589 
	C833.199768,789.197144 833.119873,796.679993 831.325378,803.506714 
	C824.424988,829.756592 791.760864,833.839844 775.791321,818.435364 
	C775.357605,818.017029 774.734375,817.795105 773.674683,817.825684 
	C772.789307,818.845398 772.101318,819.528809 772.117188,820.195496 
	C772.356995,830.291748 772.751221,840.384705 772.929016,850.481628 
	C772.954224,851.913574 772.448669,854.173340 771.480408,854.670654 
	C765.446716,857.769653 760.003540,854.259094 760.002258,847.524170 
	C759.996887,819.102295 759.999939,790.680359 760.000000,762.258484 
	C760.000000,751.915833 760.589539,751.477539 770.830872,754.259277 
	C771.121399,754.338196 771.352417,754.636536 772.055481,755.169067 
	C771.837463,756.820618 771.316345,758.756653 771.434265,760.652893 
	C771.501648,761.736816 772.609497,762.756042 773.248962,763.804382 
	C773.810547,763.170532 774.372131,762.536682 774.933716,761.902832 
	C774.933716,761.902832 774.989136,761.985962 775.310669,761.944580 
	C776.386719,760.844055 777.141174,759.784851 777.895630,758.725586 
M816.014648,787.626343 
	C816.002869,786.961182 816.036804,786.291626 815.972534,785.631592 
	C814.541870,770.945435 802.667236,761.854614 790.023743,766.111267 
	C781.539185,768.967712 776.980408,775.721680 775.407471,784.134277 
	C772.706848,798.579041 782.970764,815.437378 800.254639,811.982605 
	C809.817871,810.071167 815.879517,801.020874 816.014648,787.626343 
z" />
	<path fill="#0DABB9" opacity="1.000000" stroke="none" d="
M264.902405,828.038330 
	C260.997406,827.566711 257.461273,827.440186 254.123672,826.560547 
	C243.411758,823.737305 237.629318,816.449707 237.043747,805.539917 
	C236.514023,795.670593 242.819382,786.132568 253.192825,782.240417 
	C262.826233,778.625916 272.855896,778.440857 282.926453,780.444824 
	C284.050659,780.668579 285.184631,780.843445 286.299683,781.038513 
	C289.440094,768.625427 279.144592,762.280884 268.620331,764.394470 
	C263.613037,765.400085 258.756317,767.149841 255.603775,771.816223 
	C255.101166,772.560242 253.231308,773.064697 252.336136,772.738770 
	C248.818924,771.458313 245.438736,769.801453 242.035065,768.296509 
	C247.408585,754.331055 262.691162,748.899963 276.724884,750.488159 
	C280.905731,750.961426 285.119415,752.266357 289.015808,753.907654 
	C298.343933,757.837219 302.354370,765.897095 302.654724,775.294495 
	C303.185974,791.914185 302.803619,808.563049 302.803619,825.592896 
	C298.083130,825.592896 293.358429,825.592896 288.175201,825.592896 
	C288.039368,823.432312 287.891693,821.082642 287.700470,818.040710 
	C281.299866,824.573120 274.012299,827.934204 264.902405,828.038330 
M271.448486,813.891479 
	C282.737885,810.488708 287.861237,803.584473 286.450867,793.310181 
	C278.051392,791.848999 269.563080,790.544739 261.177673,793.629578 
	C255.539658,795.703735 252.858994,800.896545 253.964905,806.693542 
	C254.793259,811.035645 258.721558,813.961304 264.279633,814.197388 
	C266.403290,814.287598 268.540436,814.061157 271.448486,813.891479 
z" />
	<path fill="#0FACBA" opacity="1.000000" stroke="none" d="
M860.917969,793.544861 
	C858.784058,793.744751 856.650146,793.944702 854.511230,794.145081 
	C855.857666,803.848450 860.676758,810.601318 870.355774,812.961304 
	C880.851624,815.520386 889.176697,811.915649 895.865356,802.749878 
	C900.219788,805.380493 904.631042,808.045410 909.110046,810.751282 
	C894.525574,829.246094 872.792114,830.976746 856.976440,823.007751 
	C844.857544,816.901428 839.942932,806.086365 838.531982,793.125244 
	C836.379517,773.352356 847.640869,755.921326 866.818787,751.593750 
	C883.012329,747.939514 898.715637,752.763184 906.084351,769.629333 
	C906.720886,776.293274 907.328674,782.182617 908.110840,788.048828 
	C908.205017,788.755493 909.242859,789.336426 909.843323,789.975647 
	C909.895203,790.428955 909.947083,790.882324 909.468750,791.667664 
	C891.035522,791.999695 873.132629,791.999695 855.229675,791.999695 
	C855.229919,792.201660 855.230164,792.403625 855.230347,792.605591 
	C857.126221,792.918701 859.022095,793.231750 860.917969,793.544861 
M859.806396,781.052002 
	C871.270630,781.052002 882.734863,781.052002 894.233459,781.052002 
	C892.323120,769.528198 885.894897,763.984680 874.693237,764.018494 
	C864.242310,764.050049 857.070862,770.287476 855.418701,780.879822 
	C856.585754,780.936890 857.740906,780.993408 859.806396,781.052002 
z" />
	<path fill="#0DABB9" opacity="1.000000" stroke="none" d="
M710.995483,750.839600 
	C730.096313,750.501099 745.440308,764.060303 747.958374,782.109375 
	C751.003418,803.935913 740.122925,821.734741 720.238708,826.291138 
	C696.655273,831.695190 676.170044,816.683777 674.126648,792.802185 
	C672.318115,771.666138 683.518433,756.158264 703.109253,751.422913 
	C705.488464,750.847839 708.047119,751.015381 710.995483,750.839600 
M690.680237,787.840332 
	C691.138794,791.240295 691.145569,794.778564 692.135925,798.015808 
	C695.974365,810.563171 709.631470,816.629578 720.235046,810.717590 
	C726.783936,807.066223 730.039917,801.134644 731.677856,794.082642 
	C733.735474,785.224182 729.482056,773.384888 722.457703,768.745789 
	C716.378967,764.731140 709.753662,763.330139 703.151733,766.809265 
	C695.220032,770.989197 691.085144,777.932739 690.680237,787.840332 
z" />
	<path fill="#0DABB9" opacity="1.000000" stroke="none" d="
M657.753540,802.446716 
	C661.383423,804.438049 664.727234,806.214539 668.048035,807.978882 
	C660.986572,822.772583 644.440491,830.290466 627.373718,826.784607 
	C612.393433,823.707336 599.856262,808.086121 599.516907,792.075317 
	C599.085449,771.717590 609.158325,756.614380 626.237427,752.010925 
	C642.918274,747.514832 660.057129,754.543213 668.087830,769.377625 
	C666.993958,770.016785 665.906921,770.698975 664.777832,771.302551 
	C661.852966,772.865906 658.891418,775.599609 655.979248,775.555786 
	C653.648987,775.520691 651.327881,772.140137 649.075195,770.161865 
	C638.543701,760.913330 625.141296,766.385193 619.774658,775.665527 
	C614.122925,785.438721 614.960815,798.359802 622.468445,806.681580 
	C630.666748,815.768860 644.770142,815.707703 652.578979,804.926270 
	C653.628723,803.476990 654.062927,799.830933 657.753540,802.446716 
z" />
	<path fill="#0FADBB" opacity="1.000000" stroke="none" d="
M425.829315,623.294617 
	C401.478912,614.860596 379.131592,602.813965 359.468018,586.067688 
	C331.418030,562.179321 309.949768,533.179932 293.464111,500.366058 
	C292.349091,498.146729 291.294495,495.894867 290.285553,493.625336 
	C289.754761,492.431427 289.383789,491.166473 288.790161,489.514893 
	C291.191406,488.376526 293.507111,487.278748 296.060913,486.068054 
	C323.796967,545.588440 364.653229,591.709229 427.299652,616.312378 
	C424.845612,617.791321 420.578064,612.968628 419.257629,618.697083 
	C421.559235,620.307251 423.694275,621.800964 425.829315,623.294617 
z" />
	<path fill="#0DACBA" opacity="1.000000" stroke="none" d="
M507.910004,824.983093 
	C502.751312,825.258545 497.592651,825.533936 492.606689,825.335327 
	C492.852448,804.027588 492.888397,783.193665 493.015015,762.360291 
	C493.073578,752.728760 491.661499,754.359436 501.537079,753.903076 
	C505.967743,753.698303 507.155121,755.054077 507.103271,759.459961 
	C506.866608,779.563232 506.975647,799.671021 507.036804,819.776917 
	C507.042084,821.513184 507.605713,823.247742 507.910004,824.983093 
z" />
	<path fill="#73DCE3" opacity="1.000000" stroke="none" d="
M720.059509,498.022278 
	C713.032410,513.572693 703.502808,527.506409 692.764282,540.698181 
	C677.073669,559.973267 658.109985,575.453003 637.380859,588.914978 
	C635.579956,590.084534 633.588806,590.961243 631.349915,591.691528 
	C630.805481,589.708557 633.451904,586.675842 628.947083,586.980225 
	C642.012207,577.036499 655.857239,567.950928 667.961792,556.950256 
	C686.643372,539.972168 701.754089,519.879395 713.722168,497.527985 
	C715.699463,503.389771 718.058777,497.509857 720.059509,498.022278 
z" />
	<path fill="#A5E8EC" opacity="1.000000" stroke="none" d="
M666.773315,603.959229 
	C673.691772,598.316040 680.707520,592.787354 687.509338,587.006897 
	C704.281128,572.753540 719.048462,556.693359 731.002563,538.135498 
	C732.344421,536.052368 733.896729,534.104797 735.691528,532.286926 
	C737.380554,533.669556 738.729492,534.859680 740.078369,536.049744 
	C732.648499,546.581665 726.006653,557.796021 717.610291,567.490967 
	C703.897766,583.324097 688.210815,597.219849 670.363037,608.636963 
	C668.924683,606.879883 667.848999,605.419556 666.773315,603.959229 
z" />
	<path fill="#0FADBB" opacity="1.000000" stroke="none" d="
M227.688416,420.544250 
	C227.785248,430.426666 227.785248,439.864349 227.785248,449.672516 
	C223.191208,449.672516 218.831924,449.672516 214.191681,449.672516 
	C214.191681,439.802673 214.191681,429.918060 214.191681,419.035309 
	C218.669891,419.390961 223.130737,419.745239 227.688416,420.544250 
z" />
	<path fill="#E3F8F9" opacity="1.000000" stroke="none" d="
M615.996033,639.074219 
	C610.009033,641.716125 604.133362,644.659729 598.006165,646.921631 
	C590.728333,649.608459 583.309265,651.996460 575.806030,653.958130 
	C571.132690,655.179932 566.203918,655.583557 561.360352,655.894958 
	C559.977356,655.983765 558.491028,654.465698 556.584106,653.430298 
	C576.056091,646.767090 594.606934,640.419067 613.929688,634.038574 
	C615.970276,633.747253 617.376404,633.753357 618.481689,633.179749 
	C621.792297,631.461975 623.059387,632.607849 623.006836,636.033447 
	C623.006836,636.033447 622.995300,635.998840 622.631104,635.998474 
	C621.177734,636.683228 620.088623,637.368286 618.999512,638.053406 
	C618.530701,638.361145 618.061890,638.668823 617.203857,638.817566 
	C616.541748,638.797119 616.268860,638.935669 615.996033,639.074219 
z" />
	<path fill="#73DCE3" opacity="1.000000" stroke="none" d="
M426.057983,623.570740 
	C423.694275,621.800964 421.559235,620.307251 419.257629,618.697083 
	C420.578064,612.968628 424.845612,617.791321 427.643433,616.414429 
	C442.615265,620.360046 457.408600,624.584656 472.346344,629.213135 
	C468.170380,629.877197 468.971283,632.522461 469.881897,635.218872 
	C455.350159,631.428162 440.818420,627.637512 426.057983,623.570740 
z" />
	<path fill="#C3EEF2" opacity="1.000000" stroke="none" d="
M623.380127,636.019165 
	C623.059387,632.607849 621.792297,631.461975 618.481689,633.179749 
	C617.376404,633.753357 615.970276,633.747253 614.298706,634.000000 
	C623.621277,628.822815 633.422424,623.787659 643.046936,618.434753 
	C649.920288,614.611877 656.556396,610.362427 663.845093,606.053589 
	C664.601074,605.529968 664.810303,605.256104 665.019470,604.982239 
	C665.452637,604.713623 665.885803,604.445007 666.546143,604.067749 
	C667.848999,605.419556 668.924683,606.879883 670.023438,608.706360 
	C670.046631,609.072510 670.016357,609.038330 669.710083,609.043030 
	C668.939880,609.439514 668.476074,609.831360 668.012268,610.223206 
	C660.652710,615.146606 653.501953,620.427063 645.872742,624.889404 
	C638.764282,629.047119 631.146790,632.334473 623.380127,636.019165 
z" />
	<path fill="#0FADBB" opacity="1.000000" stroke="none" d="
M274.952454,353.027710 
	C274.952209,349.556610 274.952209,346.580261 274.952209,343.282135 
	C280.251282,343.282135 285.284027,343.282135 290.515320,343.282135 
	C290.515320,378.847473 290.515320,414.209747 290.515320,449.807861 
	C285.346710,449.807861 280.431183,449.807861 274.952667,449.807861 
	C274.952667,417.641022 274.952667,385.581726 274.952454,353.027710 
M281.459137,449.002441 
	C283.609528,449.002441 285.759949,449.002441 288.387207,449.002441 
	C288.602722,446.382080 288.972137,443.959839 288.975372,441.537140 
	C289.015076,411.744385 289.036896,381.951477 288.979858,352.158752 
	C288.962372,343.033356 290.397827,344.244720 280.718750,343.923096 
	C276.963196,343.798279 275.906830,345.015900 275.922150,348.733734 
	C276.053833,380.689728 276.049438,412.646667 275.926727,444.602753 
	C275.912903,448.202362 277.163330,449.470978 281.459137,449.002441 
z" />
	<path fill="#0FACBA" opacity="1.000000" stroke="none" d="
M492.646912,737.275818 
	C487.429260,728.994141 492.094025,720.759705 498.931488,719.980774 
	C503.609589,719.447754 507.479370,721.654785 509.274841,725.997375 
	C511.105530,730.425171 509.894684,736.154358 506.579163,738.751953 
	C502.874817,741.654053 497.702118,741.202637 492.646912,737.275818 
z" />
	<path fill="#A5E8EC" opacity="1.000000" stroke="none" d="
M628.969238,586.987976 
	C633.451904,586.675842 630.805481,589.708557 631.003113,591.797363 
	C616.540527,602.267395 600.367859,608.637634 583.509277,613.789307 
	C585.107117,611.622803 585.665527,609.792542 583.068542,608.069519 
	C596.021851,602.364380 608.975220,596.659180 622.577393,590.889099 
	C623.485352,590.533813 623.744446,590.243408 624.003540,589.952942 
	C624.003540,589.952942 624.001404,590.007385 624.286865,589.973022 
	C625.049744,589.600769 625.527222,589.262878 626.004761,588.925049 
	C626.004761,588.925049 625.994202,588.994019 626.323975,588.984619 
	C627.432678,588.300537 628.211670,587.625793 628.990662,586.951111 
	C628.990662,586.951111 628.991455,586.995728 628.969238,586.987976 
z" />
	<path fill="#0DABB9" opacity="1.000000" stroke="none" d="
M774.600098,762.081543 
	C774.372131,762.536682 773.810547,763.170532 773.248962,763.804382 
	C772.609497,762.756042 771.501648,761.736816 771.434265,760.652893 
	C771.316345,758.756653 771.837463,756.820618 772.055481,755.169067 
	C771.352417,754.636536 771.121399,754.338196 770.830872,754.259277 
	C760.589539,751.477539 760.000000,751.915833 760.000000,762.258484 
	C759.999939,790.680359 759.996887,819.102295 760.002258,847.524170 
	C760.003540,854.259094 765.446716,857.769653 771.480408,854.670654 
	C772.448669,854.173340 772.954224,851.913574 772.929016,850.481628 
	C772.751221,840.384705 772.356995,830.291748 772.117188,820.195496 
	C772.101318,819.528809 772.789307,818.845398 773.513977,818.085388 
	C773.878113,830.462280 773.878113,842.923523 773.878113,855.711548 
	C768.709412,855.711548 763.659973,855.711548 758.322144,855.711548 
	C758.322144,821.253174 758.322144,786.880859 758.322144,752.233704 
	C763.154968,752.233704 767.878906,752.233704 773.135376,752.233704 
	C773.135376,755.693054 773.131775,758.974915 773.151062,762.256653 
	C773.151733,762.368774 773.402649,762.588013 773.502869,762.569824 
	C773.767395,762.521729 774.013184,762.370483 774.600098,762.081543 
z" />
	<path fill="#0FACBA" opacity="1.000000" stroke="none" d="
M258.908478,407.000000 
	C258.912750,421.463867 258.912750,435.427734 258.912750,449.715332 
	C253.581299,449.715332 248.533234,449.715332 243.219330,449.715332 
	C243.219330,427.056488 243.219330,404.476440 243.219330,381.552673 
	C248.273926,381.552673 253.325302,381.552673 258.904205,381.552673 
	C258.904205,389.954163 258.904205,398.227081 258.908478,407.000000 
M244.000214,387.782501 
	C243.999832,406.400421 244.094788,425.019165 243.925903,443.635559 
	C243.888016,447.809418 245.346481,449.509613 249.438583,449.012115 
	C250.093826,448.932465 250.780380,448.914948 251.429840,449.015259 
	C255.675507,449.670746 257.218170,448.200378 257.111816,443.627686 
	C256.798431,430.153534 257.000000,416.667389 257.000000,403.185944 
	C257.000000,396.637878 257.000000,390.089844 257.000000,382.709045 
	C253.480560,383.202148 250.702225,383.324829 248.096130,384.058929 
	C246.589996,384.483215 245.361633,385.893555 244.000214,387.782501 
z" />
	<path fill="#C3EEF2" opacity="1.000000" stroke="none" d="
M740.060852,536.030334 
	C738.729492,534.859680 737.380554,533.669556 735.975464,532.085693 
	C738.798218,526.181335 741.737915,520.701538 744.536682,515.150574 
	C746.760254,510.740143 748.811462,506.242767 751.269165,501.619781 
	C753.383911,502.317566 755.168762,503.179565 756.953613,504.041595 
	C751.764160,514.157715 746.574707,524.273743 740.978271,534.794250 
	C740.385803,535.483093 740.200256,535.767517 740.014771,536.051941 
	C740.014771,536.051941 740.043335,536.010925 740.060852,536.030334 
z" />
	<path fill="#0295A8" opacity="1.000000" stroke="none" d="
M206.906708,781.489929 
	C207.229218,782.714661 207.937958,784.399658 207.953232,786.090881 
	C208.053925,797.236206 208.123642,808.384827 207.935562,819.527893 
	C207.876663,823.016479 208.957260,824.177795 212.471436,824.072571 
	C223.952271,823.728699 221.921555,825.433655 221.960571,814.610352 
	C222.063705,785.996582 221.899673,757.381470 222.095749,728.768677 
	C222.126648,724.259399 221.034851,722.672424 216.327209,722.892639 
	C206.710373,723.342529 208.140274,721.889771 208.009125,731.088501 
	C207.845871,742.538879 207.695587,753.989441 207.213974,765.703857 
	C206.888229,751.370667 206.888229,736.773438 206.888229,721.963867 
	C212.505157,721.963867 217.572922,721.963867 222.840317,721.963867 
	C222.840317,756.483582 222.840317,790.872375 222.840317,825.595337 
	C217.744461,825.595337 212.682983,825.595337 206.972198,825.595337 
	C206.972198,811.091125 206.972198,796.522095 206.906708,781.489929 
z" />
	<path fill="#0DABB9" opacity="1.000000" stroke="none" d="
M700.240601,220.682419 
	C695.586914,216.425720 691.183350,212.407364 686.448242,208.086411 
	C688.096069,205.920395 689.774414,203.714279 691.802734,201.048080 
	C698.329529,207.082214 704.741455,213.010132 711.186768,218.968903 
	C704.669434,224.901138 704.669434,224.901138 700.240601,220.682419 
z" />
	<path fill="#0FACBA" opacity="1.000000" stroke="none" d="
M758.976074,327.075989 
	C757.947937,323.032135 756.946716,319.404297 755.861572,315.472321 
	C758.467957,314.611786 760.894592,313.810577 763.676025,312.892273 
	C765.774536,320.953217 767.899658,328.729706 769.696045,336.581390 
	C769.887573,337.418579 768.365112,339.122375 767.265259,339.655182 
	C766.018372,340.259247 764.351746,339.996887 762.291260,340.155640 
	C761.201050,335.957031 760.101990,331.724518 758.976074,327.075989 
z" />
	<path fill="#0DABB9" opacity="1.000000" stroke="none" d="
M727.925354,241.068665 
	C731.052002,245.773987 734.002380,250.167114 737.191772,254.915970 
	C734.683289,256.349243 732.303894,257.708771 729.948608,259.054535 
	C725.255737,252.403412 720.699036,245.945206 715.859314,239.085907 
	C718.074524,237.359146 720.339478,235.593658 722.783325,233.688660 
	C724.538513,236.186768 726.143799,238.471619 727.925354,241.068665 
z" />
	<path fill="#0DABB9" opacity="1.000000" stroke="none" d="
M594.917297,146.944641 
	C596.544922,147.384491 597.788269,147.785172 599.433533,148.315399 
	C598.758118,150.813065 598.092224,153.275452 597.352051,156.012360 
	C589.187683,153.996490 581.233459,152.032501 572.823120,149.955887 
	C573.435425,147.303314 574.009460,144.816635 574.715332,141.758575 
	C581.532532,143.529068 588.032776,145.217270 594.917297,146.944641 
z" />
	<path fill="#0DABB9" opacity="1.000000" stroke="none" d="
M636.934692,163.018555 
	C638.411316,163.822342 639.536743,164.515564 641.027954,165.434113 
	C639.680420,167.853027 638.360413,170.222534 637.163147,172.371704 
	C629.348816,168.557465 621.841797,164.893219 614.115112,161.121735 
	C615.027527,158.905991 616.013245,156.512268 617.188293,153.658859 
	C623.867981,156.844269 630.225769,159.876144 636.934692,163.018555 
z" />
	<path fill="#0DABB9" opacity="1.000000" stroke="none" d="
M772.534668,384.164185 
	C770.528198,384.145233 768.914795,384.145233 767.449036,384.145233 
	C766.704834,375.348206 765.988281,366.878540 765.234131,357.963623 
	C767.573547,357.592865 769.947632,357.216614 773.052429,356.724518 
	C773.730774,365.398499 774.433044,373.706879 774.932861,382.027466 
	C774.973511,382.703400 773.628662,383.462616 772.534668,384.164185 
z" />
	<path fill="#0DABB9" opacity="1.000000" stroke="none" d="
M754.819336,289.214417 
	C755.721436,291.357574 756.462708,293.148315 757.321533,295.223114 
	C754.611572,296.136292 752.189575,296.952454 749.665894,297.802856 
	C746.262573,290.350464 742.859253,282.898163 739.300293,275.105072 
	C741.348328,273.898315 743.707275,272.508392 746.444214,270.895691 
	C749.242371,277.015778 751.950439,282.938904 754.819336,289.214417 
z" />
	<path fill="#0DABB9" opacity="1.000000" stroke="none" d="
M668.830322,183.190430 
	C671.970154,185.395020 674.821960,187.385406 677.884277,189.522781 
	C676.141602,191.705994 674.497559,193.765625 672.749634,195.955475 
	C665.996216,191.237061 659.400513,186.628845 652.520203,181.821777 
	C653.914673,179.833740 655.277161,177.891235 657.045898,175.369568 
	C660.931702,177.940659 664.736938,180.458466 668.830322,183.190430 
z" />
	<path fill="#0DABB9" opacity="1.000000" stroke="none" d="
M319.590057,752.123901 
	C320.001373,786.409363 320.001129,820.685974 320.001251,855.423462 
	C319.463379,855.133972 318.456543,854.384827 318.454376,853.632812 
	C318.357819,820.319275 318.345947,787.005371 318.366547,753.691589 
	C318.366882,753.165894 318.896118,752.640503 319.590057,752.123901 
z" />
	<path fill="#C3EEF2" opacity="1.000000" stroke="none" d="
M732.011230,469.167969 
	C732.011475,469.584747 732.011780,470.001526 731.764709,470.832428 
	C731.253601,471.455536 731.085754,471.724396 731.013916,472.053192 
	C731.013916,472.053192 731.005920,471.994904 730.703979,472.126282 
	C728.902405,471.707428 727.402832,471.157166 725.903198,470.606903 
	C727.205200,464.834747 728.496826,459.060242 729.816528,453.292114 
	C730.147522,451.845184 730.692322,450.438782 730.926758,448.979614 
	C731.855530,443.198273 733.331421,442.581635 739.180359,446.142456 
	C737.175476,453.096619 735.127075,460.201904 732.782166,467.799500 
	C732.327515,468.583893 732.169373,468.875946 732.011230,469.167969 
z" />
	<path fill="#0DABB9" opacity="1.000000" stroke="none" d="
M555.911377,142.628342 
	C555.487732,144.455383 555.115601,145.865494 554.684387,147.499405 
	C547.429871,146.435455 540.321716,145.392975 532.698608,144.274963 
	C533.067749,141.439606 533.393982,138.933365 533.730347,136.349777 
	C540.639648,137.264206 546.929016,138.285431 553.259216,138.842361 
	C555.828369,139.068390 556.367615,140.036240 555.911377,142.628342 
z" />
	<path fill="#A5E8EC" opacity="1.000000" stroke="none" d="
M725.572388,470.787048 
	C727.402832,471.157166 728.902405,471.707428 730.732056,472.135254 
	C728.194397,479.146698 725.326721,486.280548 722.015625,493.807800 
	C721.384827,494.489410 721.197388,494.777618 721.010010,495.065796 
	C721.010010,495.065796 721.000183,494.999695 720.759888,495.203278 
	C720.350952,496.290192 720.182434,497.173492 720.013916,498.056824 
	C720.013916,498.056824 720.010925,498.009277 720.035217,498.015778 
	C718.058777,497.509857 715.699463,503.389771 713.971619,497.295197 
	C713.953064,496.908600 713.988220,496.972229 714.231628,496.836395 
	C714.642273,496.109741 714.809509,495.518921 714.976746,494.928101 
	C714.976746,494.928101 714.994751,494.995758 715.228821,494.840942 
	C715.633911,494.100708 715.804932,493.515259 715.975952,492.929840 
	C715.975952,492.929840 715.992920,492.997192 716.232056,492.847351 
	C716.640991,492.108185 716.810913,491.518799 716.980774,490.929443 
	C716.980774,490.929443 716.992493,490.997437 717.132935,490.927795 
	C717.358337,490.769714 717.529846,490.624908 717.514771,490.601776 
	C717.389648,490.409973 717.230103,490.240631 717.080933,490.064545 
	C719.801147,483.698761 722.521301,477.333008 725.572388,470.787048 
z" />
	<path fill="#E3F8F9" opacity="1.000000" stroke="none" d="
M757.010498,503.681946 
	C755.168762,503.179565 753.383911,502.317566 751.317078,501.261047 
	C753.942993,493.220673 756.850952,485.374786 759.761780,477.521179 
	C761.245361,478.644257 762.704712,479.748993 764.164062,480.853729 
	C764.663940,480.939972 765.163818,481.026245 765.663696,481.112518 
	C762.798218,488.515747 759.932739,495.919006 757.010498,503.681946 
z" />
	<path fill="#E3F8F9" opacity="1.000000" stroke="none" d="
M558.991455,621.051086 
	C551.829895,622.670044 544.681396,624.352539 537.490112,625.826416 
	C536.606018,626.007629 535.095398,625.327026 534.616821,624.574219 
	C534.255188,624.005493 534.772461,622.289612 535.434692,621.777710 
	C536.926270,620.624695 538.656189,619.527039 540.456970,619.073242 
	C546.351257,617.588135 552.320618,616.400879 558.883545,615.337036 
	C560.617798,616.290527 561.729614,617.006042 562.841370,617.721619 
	C561.558044,618.831421 560.274780,619.941284 558.991455,621.051086 
z" />
	<path fill="#0295A8" opacity="1.000000" stroke="none" d="
M507.983856,824.520264 
	C507.605713,823.247742 507.042084,821.513184 507.036804,819.776917 
	C506.975647,799.671021 506.866608,779.563232 507.103271,759.459961 
	C507.155121,755.054077 505.967743,753.698303 501.537079,753.903076 
	C491.661499,754.359436 493.073578,752.728760 493.015015,762.360291 
	C492.888397,783.193665 492.852448,804.027588 492.457153,824.932495 
	C492.134918,801.086670 492.134918,777.169739 492.134918,753.045837 
	C497.414978,753.045837 502.363281,753.045837 508.057709,753.045837 
	C508.057709,776.635498 508.057709,800.346436 507.983856,824.520264 
z" />
	<path fill="#C3EEF2" opacity="1.000000" stroke="none" d="
M559.413574,621.032471 
	C560.274780,619.941284 561.558044,618.831421 562.841370,617.721619 
	C561.729614,617.006042 560.617798,616.290527 559.282715,615.306335 
	C566.808044,612.722595 574.556580,610.407532 582.686829,608.081055 
	C585.665527,609.792542 585.107117,611.622803 583.111694,613.821289 
	C575.258850,616.434937 567.547241,618.724426 559.413574,621.032471 
z" />
	<path fill="#A5E8EC" opacity="1.000000" stroke="none" d="
M470.183350,635.462280 
	C468.971283,632.522461 468.170380,629.877197 472.709137,629.344604 
	C473.406830,629.052917 473.886200,629.033630 474.760254,629.397461 
	C476.403198,629.888855 477.651428,629.997253 478.899628,630.105591 
	C484.316589,630.709839 489.733582,631.314087 495.276276,632.257568 
	C493.474121,632.734985 491.515472,632.714661 489.631622,633.079956 
	C488.727875,633.255249 487.965454,634.159546 487.139008,634.733643 
	C487.951416,635.480957 488.697693,636.322693 489.593689,636.950806 
	C490.630280,637.677490 491.798767,638.216064 492.910034,638.836243 
	C485.434937,637.792725 477.959869,636.749207 470.183350,635.462280 
z" />
	<path fill="#E3F8F9" opacity="1.000000" stroke="none" d="
M501.967712,632.031738 
	C507.030579,632.318848 512.093445,632.605957 517.606873,632.918640 
	C517.219849,635.486328 516.918091,637.487854 516.592163,639.650330 
	C511.074158,639.650330 505.839569,639.650330 500.305237,638.974609 
	C500.659546,636.209778 501.313629,634.120789 501.967712,632.031738 
z" />
	<path fill="#C3EEF2" opacity="1.000000" stroke="none" d="
M501.540985,632.026123 
	C501.313629,634.120789 500.659546,636.209778 500.001038,638.690186 
	C497.930695,639.041077 495.864777,639.000671 493.354431,638.898193 
	C491.798767,638.216064 490.630280,637.677490 489.593689,636.950806 
	C488.697693,636.322693 487.951416,635.480957 487.139008,634.733643 
	C487.965454,634.159546 488.727875,633.255249 489.631622,633.079956 
	C491.515472,632.714661 493.474121,632.734985 495.682922,632.313538 
	C497.680634,632.026978 499.397430,632.023743 501.540985,632.026123 
z" />
	<path fill="#0295A8" opacity="1.000000" stroke="none" d="
M861.271118,793.636963 
	C859.022095,793.231750 857.126221,792.918701 855.230347,792.605591 
	C855.230164,792.403625 855.229919,792.201660 855.229675,791.999695 
	C873.132629,791.999695 891.035522,791.999695 909.397705,792.004639 
	C909.889099,792.173950 909.921326,792.338440 909.412964,792.734375 
	C899.051758,792.961548 889.230469,792.888184 879.410828,792.980347 
	C873.960693,793.031494 868.513123,793.359192 863.064392,793.562256 
	C862.584351,793.617859 862.104248,793.673401 861.271118,793.636963 
z" />
	<path fill="#0295A8" opacity="1.000000" stroke="none" d="
M321.502319,855.916992 
	C323.448425,855.569031 325.876831,854.929504 328.252899,855.085571 
	C331.935699,855.327515 333.126465,854.099548 333.086639,850.329224 
	C332.971436,839.416626 333.267639,828.499756 333.704895,817.296753 
	C334.007477,829.799805 334.007477,842.590637 334.007477,855.981995 
	C329.819611,855.981995 325.890381,855.981995 321.502319,855.916992 
z" />
	<path fill="#0FACBA" opacity="1.000000" stroke="none" d="
M863.516418,793.673889 
	C868.513123,793.359192 873.960693,793.031494 879.410828,792.980347 
	C889.230469,792.888184 899.051758,792.961548 909.326294,792.970337 
	C908.609375,793.269043 907.439209,793.815735 906.267639,793.818726 
	C892.168030,793.854248 878.068237,793.809387 863.516418,793.673889 
z" />
	<path fill="#0295A8" opacity="1.000000" stroke="none" d="
M709.083252,406.538025 
	C708.629333,405.598328 708.039246,404.205963 708.043945,402.815582 
	C708.077942,392.753143 708.231995,382.691132 708.630188,372.325623 
	C709.015686,383.376923 709.119080,394.731628 709.083252,406.538025 
z" />
	<path fill="#0295A8" opacity="1.000000" stroke="none" d="
M909.904175,789.525879 
	C909.242859,789.336426 908.205017,788.755493 908.110840,788.048828 
	C907.328674,782.182617 906.720886,776.293274 906.077026,769.974365 
	C907.384155,776.050598 908.674622,782.563354 909.904175,789.525879 
z" />
	<path fill="#73DCE3" opacity="1.000000" stroke="none" d="
M478.591248,629.983887 
	C477.651428,629.997253 476.403198,629.888855 475.115479,629.457153 
	C476.144897,629.376526 477.213867,629.619324 478.591248,629.983887 
z" />
	<path fill="#C3EEF2" opacity="1.000000" stroke="none" d="
M619.329956,638.000854 
	C620.088623,637.368286 621.177734,636.683228 622.648865,636.002197 
	C621.907410,636.653687 620.783875,637.301025 619.329956,638.000854 
z" />
	<path fill="#0DABB9" opacity="1.000000" stroke="none" d="
M777.601929,758.855713 
	C777.141174,759.784851 776.386719,760.844055 775.267944,761.918701 
	C775.705200,760.951416 776.506714,759.968628 777.601929,758.855713 
z" />
	<path fill="#73DCE3" opacity="1.000000" stroke="none" d="
M628.680115,587.017517 
	C628.211670,587.625793 627.432678,588.300537 626.290527,588.974487 
	C626.741455,588.343872 627.555542,587.713867 628.680115,587.017517 
z" />
	<path fill="#73DCE3" opacity="1.000000" stroke="none" d="
M720.276184,497.840729 
	C720.182434,497.173492 720.350952,496.290192 720.793213,495.201385 
	C720.890747,495.872131 720.714600,496.748383 720.276184,497.840729 
z" />
	<path fill="#73DCE3" opacity="1.000000" stroke="none" d="
M625.702881,588.958313 
	C625.527222,589.262878 625.049744,589.600769 624.260986,589.964478 
	C624.433472,589.657410 624.917297,589.324524 625.702881,588.958313 
z" />
	<path fill="#73DCE3" opacity="1.000000" stroke="none" d="
M716.728027,491.104126 
	C716.810913,491.518799 716.640991,492.108185 716.197510,492.850952 
	C716.107666,492.429169 716.291504,491.854004 716.728027,491.104126 
z" />
	<path fill="#A5E8EC" opacity="1.000000" stroke="none" d="
M668.314209,610.148071 
	C668.476074,609.831360 668.939880,609.439514 669.728394,609.036499 
	C669.574036,609.374512 669.095032,609.723694 668.314209,610.148071 
z" />
	<path fill="#73DCE3" opacity="1.000000" stroke="none" d="
M715.727173,493.107422 
	C715.804932,493.515259 715.633911,494.100708 715.194214,494.846436 
	C715.109863,494.432800 715.294128,493.858887 715.727173,493.107422 
z" />
	<path fill="#73DCE3" opacity="1.000000" stroke="none" d="
M714.717773,495.096985 
	C714.809509,495.518921 714.642273,496.109741 714.199097,496.852539 
	C714.101685,496.424988 714.280212,495.845428 714.717773,495.096985 
z" />
	<path fill="#A5E8EC" opacity="1.000000" stroke="none" d="
M732.219421,469.031189 
	C732.169373,468.875946 732.327515,468.583893 732.707520,468.175720 
	C732.864685,468.399475 732.697449,468.677704 732.219421,469.031189 
z" />
	<path fill="#A5E8EC" opacity="1.000000" stroke="none" d="
M740.252808,535.944946 
	C740.200256,535.767517 740.385803,535.483093 740.802979,535.080627 
	C740.853333,535.254395 740.672119,535.546143 740.252808,535.944946 
z" />
	<path fill="#A5E8EC" opacity="1.000000" stroke="none" d="
M731.236938,471.955017 
	C731.085754,471.724396 731.253601,471.455536 731.734619,471.143768 
	C731.896912,471.378601 731.732910,471.650574 731.236938,471.955017 
z" />
	<path fill="#73DCE3" opacity="1.000000" stroke="none" d="
M717.022217,490.294495 
	C717.230103,490.240631 717.389648,490.409973 717.514771,490.601776 
	C717.529846,490.624908 717.358337,490.769714 717.098389,490.927826 
	C716.923462,490.997498 716.963440,490.524475 717.022217,490.294495 
z" />
	<path fill="#0295A8" opacity="1.000000" stroke="none" d="
M205.275101,780.879211 
	C205.218338,780.445374 205.468643,780.354065 205.882019,780.691467 
	C205.968735,780.831665 205.505829,780.933228 205.275101,780.879211 
z" />
	<path fill="#73DCE3" opacity="1.000000" stroke="none" d="
M623.732849,590.059937 
	C623.744446,590.243408 623.485352,590.533813 622.932495,590.904541 
	C622.913147,590.712219 623.187622,590.439514 623.732849,590.059937 
z" />
	<path fill="#A5E8EC" opacity="1.000000" stroke="none" d="
M664.776367,605.079834 
	C664.810303,605.256104 664.601074,605.529968 664.145813,605.900635 
	C664.110901,605.724060 664.322083,605.450745 664.776367,605.079834 
z" />
	<path fill="#C3EEF2" opacity="1.000000" stroke="none" d="
M616.247192,639.050354 
	C616.268860,638.935669 616.541748,638.797119 616.908569,638.830505 
	C616.834412,639.010437 616.666443,639.018494 616.247192,639.050354 
z" />
	<path fill="#73DCE3" opacity="1.000000" stroke="none" d="
M721.277344,494.998596 
	C721.197388,494.777618 721.384827,494.489410 721.805176,494.080170 
	C721.873596,494.283203 721.709167,494.607300 721.277344,494.998596 
z" />
	<path fill="#FEFEFE" opacity="1.000000" stroke="none" d="
M335.100952,407.695740 
	C335.100952,407.695740 335.162842,407.320404 335.138367,406.712280 
	C335.656799,403.109192 336.199738,400.114288 337.099304,397.361755 
	C350.954315,397.611481 364.452667,397.618744 378.334686,397.700867 
	C379.494263,397.718964 380.270203,397.662231 381.500732,397.712524 
	C385.739655,397.832153 389.528351,397.964600 393.307098,397.826202 
	C397.777618,397.662354 402.239532,397.264709 406.705872,396.501465 
	C406.753784,391.038269 406.800995,386.042023 406.848206,381.045807 
	C406.896667,379.951263 406.945099,378.856720 406.984131,376.909851 
	C407.396027,368.386719 407.817291,360.715942 408.238556,353.045135 
	C410.820831,340.979462 413.141846,328.849731 416.077087,316.870544 
	C418.039032,308.863434 420.935120,301.088348 423.285645,293.171539 
	C424.099609,290.429962 425.627319,289.816711 428.386841,290.029236 
	C451.306915,291.794434 474.239014,293.403809 497.167664,295.057587 
	C501.459991,295.367188 505.753204,295.664948 510.517487,296.489929 
	C511.090393,311.003113 511.191803,324.994598 511.562836,339.238098 
	C514.441101,339.490112 517.049683,339.490112 519.707886,339.490112 
	C519.707886,334.959320 519.707886,330.994446 519.780273,326.612854 
	C519.802490,324.790863 519.752380,323.385590 519.796082,321.531799 
	C519.833130,317.732239 519.776367,314.381226 519.788330,310.694885 
	C519.811340,309.907837 519.765686,309.456085 519.792847,308.753235 
	C519.815857,308.334991 519.766052,308.167938 519.786621,307.627625 
	C519.805420,306.500305 519.753845,305.746216 519.787231,304.666443 
	C519.810425,303.900421 519.748779,303.460083 519.760437,302.619141 
	C519.786133,301.138855 519.738403,300.059113 519.690674,298.979401 
	C519.666321,296.751495 520.573059,296.012451 522.973328,295.926178 
	C539.214966,295.342346 555.458801,294.708984 571.681335,293.745880 
	C582.054199,293.130005 592.444580,292.282776 602.716614,290.782867 
	C606.288025,290.261414 607.177734,291.627747 607.928101,294.080231 
	C612.318237,308.430054 617.299133,322.644958 620.754456,337.219818 
	C623.325928,348.066833 623.888916,359.389954 625.594177,371.267181 
	C625.881531,382.338745 625.921082,392.644165 625.960693,402.949585 
	C625.418884,407.972229 624.819885,412.989502 624.345032,418.018463 
	C621.973633,443.132935 616.154358,467.409454 606.725891,490.812714 
	C606.360107,491.720581 605.850342,492.570435 605.490540,493.283081 
	C596.842773,492.497223 588.368164,491.727112 579.343872,490.845337 
	C578.640442,490.533478 578.452454,490.493042 578.230225,490.612335 
	C577.727966,490.475952 577.225769,490.339539 575.877930,490.215851 
	C569.689514,490.110046 564.346680,489.991516 559.003845,489.872986 
	C559.003845,489.873016 559.017151,489.964783 558.840332,489.600677 
	C546.127441,488.732056 533.591492,488.227539 521.055481,487.723022 
	C521.055481,487.723022 521.090088,487.957123 521.164673,487.608032 
	C521.512695,486.512024 521.786072,485.765076 522.059509,485.018158 
	C544.610229,484.166321 562.860962,474.583923 577.426514,457.628326 
	C584.828064,449.012268 590.706421,439.451782 594.684265,428.774139 
	C597.194763,422.035278 595.687561,416.981323 590.553101,414.822754 
	C585.258606,412.596924 580.691650,414.761597 577.413635,421.009033 
	C570.978455,433.273468 563.832336,444.906097 552.240112,453.230286 
	C527.770325,470.801758 492.066376,469.032745 470.869171,447.716553 
	C463.438385,440.244019 458.693665,430.116333 452.606140,421.281158 
	C451.047241,419.018616 449.393890,416.517822 447.166260,415.090424 
	C443.814758,412.942841 440.019501,413.505188 437.041565,416.239136 
	C433.777039,419.236206 433.273621,423.019867 434.765930,427.175201 
	C441.683105,446.436157 453.871368,461.547760 470.857056,472.800598 
	C482.415955,480.458282 495.314484,484.343903 509.040100,485.704712 
	C510.033478,485.803192 510.998932,486.184021 511.958527,487.346466 
	C511.105255,487.538300 510.256531,487.873199 509.398041,487.900513 
	C496.625000,488.307251 483.823944,488.283142 471.083954,489.155640 
	C457.587616,490.079895 444.111908,491.578674 430.710052,493.427307 
	C427.159180,493.917114 426.111023,492.976776 425.020111,490.141907 
	C417.378174,470.283569 412.213531,449.792297 409.037659,428.775269 
	C408.694275,426.502655 408.202820,424.252380 407.705383,421.592804 
	C405.075317,421.891357 402.529572,422.180328 399.545380,422.519043 
	C402.676025,447.820435 408.946747,471.810669 418.092987,494.926880 
	C404.534546,498.387177 391.223022,501.880157 377.835907,505.054321 
	C376.484436,505.374756 374.117371,504.208099 373.163544,502.992523 
	C357.200592,482.648560 346.025604,459.946991 339.981384,433.969574 
	C338.542908,425.815796 337.204834,418.421631 335.866760,411.027496 
	C335.901489,410.847961 335.936218,410.668396 335.964722,409.900513 
	C335.672638,408.773346 335.386780,408.234528 335.100952,407.695740 
M555.441284,365.755646 
	C558.694214,373.637268 564.839539,377.747925 573.106445,377.811279 
	C580.775696,377.870056 586.728638,374.056396 590.095825,366.993103 
	C593.543945,359.760010 592.687073,352.874756 587.598572,346.623718 
	C581.933228,339.664032 572.270264,337.979614 563.762756,342.412750 
	C556.068542,346.422180 552.648743,355.371277 555.441284,365.755646 
M444.140839,373.481842 
	C445.582275,374.297913 446.973969,375.222046 448.473267,375.912506 
	C458.264130,380.421478 469.407349,376.081818 473.688171,366.137817 
	C477.832794,356.510162 472.781799,344.955750 462.796844,341.223297 
	C454.431366,338.096222 444.818939,341.243164 440.074249,348.662292 
	C434.968994,356.645386 436.209564,365.289001 444.140839,373.481842 
z" />
	<path fill="#FEFEFE" opacity="1.000000" stroke="none" d="
M623.964172,466.845886 
	C630.102905,443.880707 633.748657,420.949829 634.232422,397.295715 
	C655.805969,397.295715 677.195190,397.295715 699.249451,397.295715 
	C697.308289,438.001709 684.260132,474.436676 659.674500,506.330078 
	C644.499329,502.276764 629.598511,498.296692 614.742310,494.328583 
	C617.704651,485.582764 620.809509,476.416016 623.964172,466.845886 
z" />
	<path fill="#FDFEFE" opacity="1.000000" stroke="none" d="
M634.066772,387.613708 
	C633.024658,373.149261 632.778870,358.571655 630.742981,344.248474 
	C628.071655,325.454865 623.493469,307.002869 615.314392,289.975098 
	C628.753418,286.979950 642.238708,284.711945 655.214111,280.766846 
	C661.558044,278.838043 663.942810,280.906219 666.955322,285.462769 
	C682.673340,309.236877 693.323242,334.941528 696.997925,363.310669 
	C698.013306,371.149536 698.342407,379.077240 698.516724,387.465149 
	C676.720337,387.848602 655.393555,387.731140 634.066772,387.613708 
z" />
	<path fill="#FDFEFE" opacity="1.000000" stroke="none" d="
M336.059479,388.724213 
	C335.720490,384.856689 334.808105,380.940460 335.131866,377.129242 
	C338.121582,341.937744 350.732208,310.432770 371.797363,282.166077 
	C373.853241,279.407379 375.475952,278.961182 378.768707,279.830658 
	C391.020538,283.065857 403.397888,285.825867 416.064606,288.844421 
	C403.971710,320.720764 398.838867,353.856873 397.760559,388.076324 
	C396.314178,388.214905 394.879761,388.352325 392.712463,388.561951 
	C390.776520,388.709381 389.573517,388.784607 388.083557,388.703888 
	C386.747833,388.653412 385.699127,388.758942 384.329651,388.764160 
	C383.124359,388.732666 382.239838,388.801483 380.953583,388.701935 
	C374.232239,388.643707 367.912628,388.753784 361.330383,388.751648 
	C360.512817,388.715607 359.957916,388.791809 358.998840,388.692688 
	C352.610321,388.634766 346.625977,388.752136 340.270569,388.765625 
	C338.619507,388.682556 337.339478,388.703400 336.059479,388.724213 
z" />
	<path fill="#FDFEFE" opacity="1.000000" stroke="none" d="
M519.704773,211.990479 
	C521.608582,211.430817 523.588928,210.208374 525.403870,210.418015 
	C538.110535,211.885605 548.959900,217.813843 558.990173,225.329941 
	C578.416809,239.887070 591.660034,259.266754 602.468872,281.831085 
	C597.917419,282.448822 593.832886,283.216888 589.713989,283.522247 
	C577.328735,284.440399 564.928467,285.153137 552.539001,286.017212 
	C550.941162,286.128632 549.372620,286.659546 546.909241,287.008545 
	C537.358276,286.999908 528.688477,286.978882 520.018738,286.957825 
	C519.973450,286.217499 519.928101,285.477203 519.869995,284.036926 
	C519.804688,282.883148 519.752197,282.429382 519.790283,281.531067 
	C519.820557,278.068420 519.760254,275.050323 519.773621,271.657959 
	C519.802063,270.525269 519.756775,269.766815 519.786255,268.754578 
	C519.811829,268.331360 519.762756,268.161957 519.783447,267.620941 
	C519.805481,266.497650 519.757690,265.746002 519.798584,264.668365 
	C519.828369,263.899780 519.769592,263.457153 519.779968,262.678345 
	C519.803467,261.889130 519.757812,261.436066 519.804321,260.576538 
	C519.834351,258.788330 519.772217,257.406586 519.779175,255.688019 
	C519.802246,254.897430 519.756226,254.443665 519.802246,253.624329 
	C519.834412,252.512680 519.774536,251.766617 519.784058,250.682938 
	C519.806824,249.890533 519.760132,249.435745 519.806274,248.525421 
	C519.834961,243.723038 519.770874,239.376175 519.781067,234.602203 
	C519.807617,232.445068 519.759949,230.715057 519.802979,228.578278 
	C519.829895,226.790466 519.765991,225.409424 519.775696,223.570999 
	C519.801147,219.405914 519.752930,215.698212 519.704773,211.990479 
z" />
	<path fill="#FDFEFE" opacity="1.000000" stroke="none" d="
M511.122498,285.954315 
	C506.591583,286.288177 502.057709,286.926544 497.530518,286.882172 
	C491.253174,286.820648 484.969482,286.383820 478.708710,285.864166 
	C463.230499,284.579468 447.762634,283.168976 432.295258,281.757660 
	C431.338074,281.670319 430.421478,281.137939 429.185608,280.708191 
	C434.567291,267.688232 442.289337,256.177521 451.298035,245.619705 
	C462.588928,232.387192 475.301819,220.711029 492.193756,214.907318 
	C497.949219,212.929871 504.005493,211.828064 510.397827,210.644730 
	C510.911896,213.444687 510.982697,215.926010 510.988342,218.407471 
	C511.039520,240.923080 511.079346,263.438690 511.122498,285.954315 
z" />
	<path fill="#FCFEFE" opacity="1.000000" stroke="none" d="
M521.116943,497.189148 
	C525.330688,496.855042 529.559082,496.114288 533.755249,496.265991 
	C544.685547,496.661224 555.618164,497.244324 566.518799,498.133728 
	C578.182129,499.085388 589.809937,500.472900 602.132385,501.739990 
	C590.411499,526.798401 575.880615,548.630005 552.315918,562.893066 
	C543.208862,568.405396 532.948730,571.340210 521.748535,571.469604 
	C521.253723,546.399231 521.185303,521.794189 521.116943,497.189148 
z" />
	<path fill="#FEFEFE" opacity="1.000000" stroke="none" d="
M512.801147,569.654541 
	C511.625641,573.975952 508.077148,572.093628 505.852722,571.755066 
	C494.570770,570.037659 484.302246,565.647644 475.049805,558.908691 
	C455.251801,544.488770 441.265015,525.493774 431.020020,503.492432 
	C437.341766,499.990021 499.714600,494.686218 512.157654,496.577667 
	C512.258240,498.631561 512.362244,500.754517 512.494507,503.717163 
	C512.597961,505.447052 512.673096,506.337280 512.588623,507.651855 
	C512.574463,516.536926 512.719971,524.997681 512.739685,533.755127 
	C512.689392,534.896362 512.764893,535.740723 512.680542,536.838684 
	C512.604492,537.652893 512.688232,538.213623 512.659668,539.179077 
	C512.618713,540.134460 512.689941,540.684998 512.598755,541.658325 
	C512.580933,550.850830 512.725403,559.620544 512.760803,568.587769 
	C512.581909,569.095642 512.631714,569.385376 512.801147,569.654541 
z" />
	<path fill="#FCFEFE" opacity="1.000000" stroke="none" d="
M645.706543,274.860382 
	C634.268311,277.006256 623.231750,279.063385 611.706421,281.211639 
	C599.258179,254.341644 583.017090,230.558182 557.859497,213.295578 
	C587.613708,218.643875 625.000732,236.084885 655.837036,271.625458 
	C652.475525,272.712494 649.291870,273.742065 645.706543,274.860382 
z" />
	<path fill="#FCFEFE" opacity="1.000000" stroke="none" d="
M652.607422,514.625854 
	C627.273254,542.271606 596.614990,560.238892 560.380310,568.881042 
	C583.796692,552.372437 598.805176,529.528198 610.764404,503.529724 
	C624.957397,505.388367 639.248230,508.241150 652.607422,514.625854 
z" />
	<path fill="#FCFEFE" opacity="1.000000" stroke="none" d="
M436.493073,555.588196 
	C412.780182,542.507141 393.587585,527.501587 382.017548,512.904602 
	C388.731476,511.079895 395.211517,509.108734 401.795807,507.589142 
	C408.217560,506.107025 414.745850,505.086487 421.610107,503.791107 
	C432.706055,529.183289 448.813934,550.523438 470.997894,567.135620 
	C470.671173,567.703796 470.344482,568.272034 470.017761,568.840271 
	C458.949677,564.487061 447.881561,560.133850 436.493073,555.588196 
z" />
	<path fill="#FCFEFE" opacity="1.000000" stroke="none" d="
M459.744751,224.723160 
	C443.178375,239.511490 430.697144,256.846863 421.792419,276.767151 
	C420.686218,279.241791 419.230804,280.465881 416.428772,279.834564 
	C404.695282,277.190979 392.950287,274.598450 380.189240,271.760315 
	C404.935028,243.677017 434.491180,225.294067 470.093201,216.478165 
	C466.725800,219.140564 463.358398,221.802963 459.744751,224.723160 
z" />
	<path fill="#0295A8" opacity="1.000000" stroke="none" d="
M381.046112,397.605530 
	C380.270203,397.662231 379.494263,397.718964 377.993805,397.477051 
	C363.760406,397.158722 350.251526,397.139038 336.742676,397.119354 
	C336.199738,400.114288 335.656799,403.109192 335.047913,406.544922 
	C334.684296,403.936737 334.093292,400.867157 334.304626,397.853851 
	C334.354584,397.141052 337.097260,396.095245 338.606781,396.085907 
	C357.858429,395.966766 377.111023,396.010895 396.363403,396.008484 
	C404.885834,396.007416 404.815430,396.000305 405.057343,387.262024 
	C405.110260,385.349884 405.861786,383.457062 406.569885,381.300598 
	C406.800995,386.042023 406.753784,391.038269 406.257202,396.498352 
	C397.553925,397.176666 389.300018,397.391113 381.046112,397.605530 
z" />
	<path fill="#0295A8" opacity="1.000000" stroke="none" d="
M519.712219,228.985046 
	C519.759949,230.715057 519.807617,232.445068 519.542480,234.931549 
	C519.390991,240.118988 519.552185,244.549957 519.713379,248.980942 
	C519.760132,249.435745 519.806824,249.890533 519.580933,250.882904 
	C519.442383,252.276932 519.576355,253.133423 519.710266,253.989899 
	C519.756226,254.443665 519.802246,254.897430 519.561401,255.942520 
	C519.420410,258.016907 519.566345,259.499969 519.712219,260.983032 
	C519.757812,261.436066 519.803467,261.889130 519.596069,262.836487 
	C519.465332,263.885315 519.587646,264.439819 519.709961,264.994354 
	C519.757690,265.746002 519.805481,266.497650 519.645142,267.719421 
	C519.528564,268.462494 519.619995,268.735443 519.711487,269.008392 
	C519.756775,269.766815 519.802063,270.525269 519.541626,271.973572 
	C519.390503,275.767487 519.545166,278.871552 519.699768,281.975586 
	C519.752197,282.429382 519.804688,282.883148 519.788452,283.674194 
	C519.145264,284.199585 518.570801,284.387726 517.996216,284.575867 
	C518.000732,282.917175 518.008972,281.258453 518.009155,279.599731 
	C518.011353,258.367737 517.992004,237.135681 518.060364,215.903900 
	C518.064758,214.526398 518.741089,213.151062 519.404785,211.882599 
	C519.752930,215.698212 519.801147,219.405914 519.559082,223.826050 
	C519.416626,226.020676 519.564392,227.502853 519.712219,228.985046 
z" />
	<path fill="#0295A8" opacity="1.000000" stroke="none" d="
M519.472900,298.780731 
	C519.738403,300.059113 519.786133,301.138855 519.579346,302.778015 
	C519.450684,303.889008 519.576477,304.440582 519.702271,304.992126 
	C519.753845,305.746216 519.805420,306.500305 519.649048,307.724792 
	C519.534119,308.464935 519.627075,308.734650 519.720032,309.004364 
	C519.765686,309.456085 519.811340,309.907837 519.551147,311.013733 
	C519.397644,315.105377 519.549927,318.542816 519.702271,321.980286 
	C519.752380,323.385590 519.802490,324.790863 519.541016,326.942261 
	C519.039246,331.338776 518.849060,334.989197 518.640808,338.986084 
	C515.824341,338.986084 513.558777,338.986084 511.293213,338.986084 
	C511.191803,324.994598 511.090393,311.003113 510.971466,296.548981 
	C511.302307,297.219849 511.944977,298.351257 511.953247,299.487244 
	C512.031616,310.271881 512.002319,321.057312 512.003906,331.842499 
	C512.004150,333.634064 512.003906,335.425629 512.003906,337.296997 
	C516.323425,338.793701 518.158020,337.989777 518.075134,333.363922 
	C517.870178,321.918671 518.001221,310.467346 518.006775,299.018463 
	C518.006897,298.708191 518.115540,298.397980 518.173584,298.087738 
	C518.534119,298.252502 518.894592,298.417297 519.472900,298.780731 
z" />
	<path fill="#0295A8" opacity="1.000000" stroke="none" d="
M512.761169,541.235596 
	C512.689941,540.684998 512.618713,540.134460 512.757690,538.919373 
	C512.925354,537.698303 512.882812,537.141724 512.840332,536.585144 
	C512.764893,535.740723 512.689392,534.896362 512.801392,533.246948 
	C512.908691,524.037109 512.828430,515.632324 512.748230,507.227509 
	C512.673096,506.337280 512.597961,505.447052 512.651489,504.123322 
	C512.933350,501.561676 513.086609,499.433533 513.239868,497.305389 
	C513.378296,497.305878 513.516724,497.306366 513.655151,497.306854 
	C513.655151,522.175659 513.655151,547.044495 513.655151,573.076477 
	C513.242920,571.459290 513.100586,570.901062 512.879761,569.998718 
	C512.631714,569.385376 512.581909,569.095642 512.824402,568.086182 
	C512.918457,558.669861 512.839783,549.952759 512.761169,541.235596 
z" />
	<path fill="#0295A8" opacity="1.000000" stroke="none" d="
M511.397614,285.648407 
	C511.079346,263.438690 511.039520,240.923080 510.988342,218.407471 
	C510.982697,215.926010 510.911896,213.444687 510.738892,210.513321 
	C511.063232,210.865585 511.919617,211.668320 511.918610,212.470001 
	C511.888519,236.760895 511.774048,261.051697 511.397614,285.648407 
z" />
	<path fill="#0295A8" opacity="1.000000" stroke="none" d="
M520.849915,497.028229 
	C521.185303,521.794189 521.253723,546.399231 521.339050,571.468384 
	C520.905457,570.789856 520.065552,569.648376 520.061707,568.504211 
	C519.982666,545.024170 519.996216,521.543823 520.020874,498.063568 
	C520.021301,497.664612 520.387451,497.266052 520.849915,497.028229 
z" />
	<path fill="#0295A8" opacity="1.000000" stroke="none" d="
M634.276367,387.989136 
	C655.393555,387.731140 676.720337,387.848602 698.512756,387.923279 
	C697.786438,388.253754 696.595520,388.948242 695.402161,388.952332 
	C676.040222,389.018402 656.677917,389.005829 637.315796,388.968506 
	C636.372070,388.966675 635.429138,388.574829 634.276367,387.989136 
z" />
	<path fill="#0295A8" opacity="1.000000" stroke="none" d="
M359.402985,388.867981 
	C359.957916,388.791809 360.512817,388.715607 361.833130,388.815002 
	C368.850769,388.950470 375.103027,388.910370 381.355286,388.870300 
	C382.239838,388.801483 383.124359,388.732666 384.793701,388.829041 
	C386.509155,388.949463 387.439819,388.904663 388.370514,388.859863 
	C389.573517,388.784607 390.776520,388.709381 392.328918,388.724670 
	C394.110016,388.989197 395.541687,389.163239 397.834747,389.441956 
	C376.782898,389.441956 356.647858,389.441956 336.286133,389.083069 
	C337.339478,388.703400 338.619507,388.682556 340.767944,388.829407 
	C347.558594,388.954071 353.480774,388.911041 359.402985,388.867981 
z" />
	<path fill="#0295A8" opacity="1.000000" stroke="none" d="
M521.288086,488.083649 
	C533.591492,488.227539 546.127441,488.732056 558.884888,489.588013 
	C546.577820,489.441071 534.049194,488.942688 521.288086,488.083649 
z" />
	<path fill="#0FADBB" opacity="1.000000" stroke="none" d="
M335.604889,411.325867 
	C337.204834,418.421631 338.542908,425.815796 339.865723,433.604767 
	C339.083832,432.372253 337.901031,430.811951 337.626190,429.105377 
	C336.692200,423.306183 336.078827,417.455353 335.604889,411.325867 
z" />
	<path fill="#0295A8" opacity="1.000000" stroke="none" d="
M626.244873,403.068359 
	C625.921082,392.644165 625.881531,382.338745 625.888184,371.574280 
	C626.284851,371.240143 626.943237,371.368073 626.942017,371.489441 
	C626.837158,382.055664 626.681335,392.621399 626.244873,403.068359 
z" />
	<path fill="#0295A8" opacity="1.000000" stroke="none" d="
M407.893433,353.272827 
	C407.817291,360.715942 407.396027,368.386719 406.910553,376.504333 
	C406.566315,373.540558 405.953735,370.116669 406.088898,366.722595 
	C406.264893,362.302887 407.034271,357.906799 407.893433,353.272827 
z" />
	<path fill="#0295A8" opacity="1.000000" stroke="none" d="
M520.300781,287.265564 
	C528.688477,286.978882 537.358276,286.999908 546.489197,287.085632 
	C538.161194,287.291321 529.372070,287.432312 520.300781,287.265564 
z" />
	<path fill="#0295A8" opacity="1.000000" stroke="none" d="
M559.267944,490.195984 
	C564.346680,489.991516 569.689514,490.110046 575.487976,490.316010 
	C575.233948,490.742584 574.510681,491.399323 573.816772,491.369720 
	C569.051819,491.166504 564.292908,490.819641 559.267944,490.195984 
z" />
	<path fill="#0295A8" opacity="1.000000" stroke="none" d="
M521.725586,485.074951 
	C521.786072,485.765076 521.512695,486.512024 521.279053,487.577576 
	C521.343079,486.974731 521.367371,486.053253 521.725586,485.074951 
z" />
	<path fill="#0295A8" opacity="1.000000" stroke="none" d="
M335.086914,408.011963 
	C335.386780,408.234528 335.672638,408.773346 335.901855,409.633484 
	C335.587799,409.412598 335.330322,408.870392 335.086914,408.011963 
z" />
	<path fill="#0295A8" opacity="1.000000" stroke="none" d="
M578.351929,490.678101 
	C578.452454,490.493042 578.640442,490.533478 578.882446,490.865173 
	C578.805542,490.911072 578.639893,490.826813 578.351929,490.678101 
z" />
	<path fill="#0DACBA" opacity="1.000000" stroke="none" d="
M281.005005,449.002258 
	C277.163330,449.470978 275.912903,448.202362 275.926727,444.602753 
	C276.049438,412.646667 276.053833,380.689728 275.922150,348.733734 
	C275.906830,345.015900 276.963196,343.798279 280.718750,343.923096 
	C290.397827,344.244720 288.962372,343.033356 288.979858,352.158752 
	C289.036896,381.951477 289.015076,411.744385 288.975372,441.537140 
	C288.972137,443.959839 288.602722,446.382080 288.387207,449.002441 
	C285.759949,449.002441 283.609528,449.002441 281.005005,449.002258 
z" />
	<path fill="#0DACBA" opacity="1.000000" stroke="none" d="
M244.004242,387.321320 
	C245.361633,385.893555 246.589996,384.483215 248.096130,384.058929 
	C250.702225,383.324829 253.480560,383.202148 257.000000,382.709045 
	C257.000000,390.089844 257.000000,396.637878 257.000000,403.185944 
	C257.000000,416.667389 256.798431,430.153534 257.111816,443.627686 
	C257.218170,448.200378 255.675507,449.670746 251.429840,449.015259 
	C250.780380,448.914948 250.093826,448.932465 249.438583,449.012115 
	C245.346481,449.509613 243.888016,447.809418 243.925903,443.635559 
	C244.094788,425.019165 243.999832,406.400421 244.004242,387.321320 
z" />
	<path fill="#0DACBA" opacity="1.000000" stroke="none" d="
M555.281128,365.391663 
	C552.648743,355.371277 556.068542,346.422180 563.762756,342.412750 
	C572.270264,337.979614 581.933228,339.664032 587.598572,346.623718 
	C592.687073,352.874756 593.543945,359.760010 590.095825,366.993103 
	C586.728638,374.056396 580.775696,377.870056 573.106445,377.811279 
	C564.839539,377.747925 558.694214,373.637268 555.281128,365.391663 
z" />
	<path fill="#0DACBA" opacity="1.000000" stroke="none" d="
M443.854919,373.246704 
	C436.209564,365.289001 434.968994,356.645386 440.074249,348.662292 
	C444.818939,341.243164 454.431366,338.096222 462.796844,341.223297 
	C472.781799,344.955750 477.832794,356.510162 473.688171,366.137817 
	C469.407349,376.081818 458.264130,380.421478 448.473267,375.912506 
	C446.973969,375.222046 445.582275,374.297913 443.854919,373.246704 
z" />
	<path fill="#0FADBB" opacity="1.000000" stroke="none" d="
M337.099304,397.361755 
	C350.251526,397.139038 363.760406,397.158722 377.610138,397.402222 
	C364.452667,397.618744 350.954315,397.611481 337.099304,397.361755 
z" />
	<path fill="#0FADBB" opacity="1.000000" stroke="none" d="
M381.500732,397.712585 
	C389.300018,397.391113 397.553925,397.176666 406.256531,396.965332 
	C402.239532,397.264709 397.777618,397.662354 393.307098,397.826202 
	C389.528351,397.964600 385.739655,397.832153 381.500732,397.712585 
z" />
	<path fill="#0DABB9" opacity="1.000000" stroke="none" d="
M511.562836,339.238098 
	C513.558777,338.986084 515.824341,338.986084 518.640808,338.986084 
	C518.849060,334.989197 519.039246,331.338776 519.468628,327.358978 
	C519.707886,330.994446 519.707886,334.959320 519.707886,339.490112 
	C517.049683,339.490112 514.441101,339.490112 511.562836,339.238098 
z" />
	<path fill="#0DABB9" opacity="1.000000" stroke="none" d="
M519.796082,321.531799 
	C519.549927,318.542816 519.397644,315.105377 519.482483,311.349060 
	C519.776367,314.381226 519.833130,317.732239 519.796082,321.531799 
z" />
	<path fill="#0DABB9" opacity="1.000000" stroke="none" d="
M519.787231,304.666443 
	C519.576477,304.440582 519.450684,303.889008 519.505981,303.178589 
	C519.748779,303.460083 519.810425,303.900421 519.787231,304.666443 
z" />
	<path fill="#0DABB9" opacity="1.000000" stroke="none" d="
M519.792847,308.753235 
	C519.627075,308.734650 519.534119,308.464935 519.578735,308.098053 
	C519.766052,308.167938 519.815857,308.334991 519.792847,308.753235 
z" />
	<path fill="#0DABB9" opacity="1.000000" stroke="none" d="
M380.953583,388.701965 
	C375.103027,388.910370 368.850769,388.950470 362.095764,388.927216 
	C367.912628,388.753784 374.232239,388.643707 380.953583,388.701965 
z" />
	<path fill="#0DABB9" opacity="1.000000" stroke="none" d="
M358.998840,388.692688 
	C353.480774,388.911041 347.558594,388.954071 341.138977,388.933289 
	C346.625977,388.752136 352.610321,388.634766 358.998840,388.692688 
z" />
	<path fill="#0DABB9" opacity="1.000000" stroke="none" d="
M388.083557,388.703888 
	C387.439819,388.904663 386.509155,388.949463 385.114441,388.929321 
	C385.699127,388.758942 386.747833,388.653412 388.083557,388.703888 
z" />
	<path fill="#0DABB9" opacity="1.000000" stroke="none" d="
M519.806213,248.525421 
	C519.552185,244.549957 519.390991,240.118988 519.468262,235.358658 
	C519.770874,239.376175 519.834961,243.723038 519.806213,248.525421 
z" />
	<path fill="#0DABB9" opacity="1.000000" stroke="none" d="
M519.790283,281.531067 
	C519.545166,278.871552 519.390503,275.767487 519.467896,272.347839 
	C519.760254,275.050323 519.820557,278.068420 519.790283,281.531067 
z" />
	<path fill="#0DABB9" opacity="1.000000" stroke="none" d="
M519.804321,260.576538 
	C519.566345,259.499969 519.420410,258.016907 519.492310,256.279358 
	C519.772217,257.406586 519.834351,258.788330 519.804321,260.576538 
z" />
	<path fill="#0DABB9" opacity="1.000000" stroke="none" d="
M519.802979,228.578278 
	C519.564392,227.502853 519.416626,226.020676 519.485474,224.283417 
	C519.765991,225.409424 519.829895,226.790466 519.802979,228.578278 
z" />
	<path fill="#0DABB9" opacity="1.000000" stroke="none" d="
M519.802246,253.624329 
	C519.576355,253.133423 519.442383,252.276932 519.511536,251.220490 
	C519.774536,251.766617 519.834412,252.512680 519.802246,253.624329 
z" />
	<path fill="#0DABB9" opacity="1.000000" stroke="none" d="
M519.798584,264.668365 
	C519.587646,264.439819 519.465332,263.885315 519.526917,263.172668 
	C519.769592,263.457153 519.828369,263.899780 519.798584,264.668365 
z" />
	<path fill="#0DABB9" opacity="1.000000" stroke="none" d="
M519.786255,268.754578 
	C519.619995,268.735443 519.528564,268.462494 519.575317,268.091064 
	C519.762756,268.161957 519.811829,268.331360 519.786255,268.754578 
z" />
	<path fill="#0DABB9" opacity="1.000000" stroke="none" d="
M512.598755,541.658325 
	C512.839783,549.952759 512.918457,558.669861 512.933533,567.888672 
	C512.725403,559.620544 512.580933,550.850830 512.598755,541.658325 
z" />
	<path fill="#0DABB9" opacity="1.000000" stroke="none" d="
M512.588623,507.651855 
	C512.828430,515.632324 512.908691,524.037109 512.927246,532.950134 
	C512.719971,524.997681 512.574463,516.536926 512.588623,507.651855 
z" />
	<path fill="#0DABB9" opacity="1.000000" stroke="none" d="
M512.680542,536.838684 
	C512.882812,537.141724 512.925354,537.698303 512.869873,538.514587 
	C512.688232,538.213623 512.604492,537.652893 512.680542,536.838684 
z" />
</svg>